<?xml version="1.0" encoding="UTF-8"?>
<svg id="title-arrow" class="{% if page.is_landing_page == true %}invisible{% endif %}" viewBox="0 0 277 274" version="1.1" xmlns="http://www.w3.org/2000/svg" xmlns:xlink="http://www.w3.org/1999/xlink">
    <!-- Generator: Sketch 63.1 (92452) - https://sketch.com -->
    <title>Arrow</title>
    <desc>Created with Sketch.</desc>
    <defs>

      <filter x="-2.3%" y="-8.3%" width="104.7%" height="115.6%" filterUnits="objectBoundingBox" id="titleArrowFilter">
          <feOffset dx="1" dy="3" in="SourceAlpha" result="shadowOffsetOuter1"></feOffset>
          <feGaussianBlur stdDeviation="0.3" in="shadowOffsetOuter1" result="shadowBlurOuter1"></feGaussianBlur>
          <feColorMatrix values="0 0 0 0 0   0 0 0 0 0   0 0 0 0 0  0 0 0 0.9 0" type="matrix" in="shadowBlurOuter1" result="shadowMatrixOuter1"></feColorMatrix>
          <feMerge>
              <feMergeNode in="shadowMatrixOuter1"></feMergeNode>
              <feMergeNode in="SourceGraphic"></feMergeNode>
          </feMerge>
      </filter>
    </defs>
    <g id="Artboard" stroke="white" stroke-width="1" fill="white" fill-rule="evenodd" filter="url(#titleArrowFilter)">
        <g id="Path" transform="translate(29.000000, 14.000000)" fill-rule="nonzero">
            <path d="M199.995035,206.875986 L227.49777,224.04717 L197.259182,235.746648 L199.995035,206.875986 Z M182.206821,215.474948 C185.725516,216.35344 189.558749,217.151207 193.705799,217.867613 L194.749099,218.045019 L193.923734,222.976426 C189.609044,222.25428 185.60553,221.446188 181.912473,220.551516 L180.995676,220.326044 L182.206821,215.474948 Z M164.095885,208.811184 C164.101311,208.814216 164.101311,208.814216 164.106752,208.817258 C167.072871,210.47538 170.645412,211.992783 174.823028,213.363036 L175.613422,213.618233 L174.0989,218.383337 C169.276339,216.850554 165.133687,215.119565 161.667006,213.181618 L161.661752,213.178681 L161.656498,213.175745 L164.095885,208.811184 Z M146.29841,199.56069 C147.545163,200.214992 148.840956,200.882998 150.388724,201.671592 C151.318149,202.145138 154.707548,203.862977 154.455344,203.734971 C155.652622,204.342647 156.610036,204.831271 157.51822,205.299197 L157.856854,205.473891 L155.562227,209.916265 C154.674284,209.457614 153.758924,208.989472 152.627272,208.414414 L152.192395,208.193565 L152.199,208.197 L152.173321,208.183943 C151.834054,208.012111 148.966202,206.558394 148.118847,206.126663 C146.728349,205.418199 145.536538,204.804727 144.399163,204.21023 L143.974918,203.988035 L146.29841,199.56069 Z M129.448929,189.424586 C132.541912,191.610553 135.699229,193.623138 139.088185,195.593826 L140.226646,196.249351 L137.749892,200.592816 C134.186363,198.5608 130.872113,196.494397 127.638328,194.259241 L126.563148,193.507755 L129.448929,189.424586 Z M114.421003,176.857115 L115.325,177.732 L115.506364,177.612385 L116.046,178.417 L116.317456,178.674476 C118.532136,180.755475 120.755734,182.70096 123.002808,184.530645 L123.96732,185.307764 L120.850472,189.2174 C118.839611,187.614297 116.849454,185.925828 114.870937,184.139667 L114.704,183.988 L114.674247,184.005325 C111.881657,185.587613 109.140423,186.790513 106.464702,187.579936 L105.892341,187.742757 L104.571685,182.920323 C106.629499,182.356777 108.774967,181.484046 110.989764,180.320779 L111.088,180.267 L114.421003,176.857115 Z M86.3232614,180.895375 C90.5532324,182.216347 94.3483171,183.127865 97.1113653,183.523062 C97.3977506,183.563905 97.6811746,183.596225 97.9657619,183.620528 L98.3940308,183.651033 L98.1083562,188.642865 C97.5379334,188.610221 96.9748111,188.554178 96.4044329,188.472834 C93.4888361,188.055819 89.6673927,187.150845 85.4395005,185.855722 L84.8328049,185.668061 L86.3232614,180.895375 Z M68.0893704,173.649557 C71.5569635,175.321648 75.0660225,176.836462 78.5345612,178.173053 L79.8332037,178.66588 L78.0831875,183.349622 C74.5003327,182.010938 70.867301,180.485873 67.2663425,178.795071 L65.9176471,178.153291 L68.0893704,173.649557 Z M130.095814,164.859567 L133.745993,168.276612 C130.845879,171.374591 127.873093,174.229156 124.887164,176.754553 L124.072539,177.435071 L120.890715,173.57813 C123.976321,171.032627 127.072396,168.089263 130.095814,164.859567 Z M101.227086,162.208196 C102.333654,163.576288 103.485129,164.964897 104.680809,166.372855 C106.055601,167.991569 107.423901,169.543456 108.791672,171.036566 L109.612319,171.925444 L105.951918,175.331536 C104.258715,173.511913 102.568132,171.60921 100.869742,169.609483 C99.9537395,168.530857 99.0627137,167.462838 98.1969271,166.405861 L97.3395631,165.352582 L101.227086,162.208196 Z M51.1129491,163.842487 C54.1705616,165.952433 57.3828149,167.945325 60.7159617,169.813367 L61.9714928,170.508015 L59.5747892,174.896159 C56.0798004,172.987277 52.7022029,170.945257 49.4758656,168.776835 L48.2731456,167.957765 L51.1129491,163.842487 Z M35.7881259,151.54602 C38.4991105,154.015091 41.3350444,156.419744 44.3094303,158.773899 L45.5926831,159.779772 L42.5265579,163.729313 C39.3737922,161.281744 36.3672748,158.780185 33.493039,156.209791 L32.421374,155.242638 L35.7881259,151.54602 Z M142.300822,149.536846 L146.463589,152.30657 C144.36949,155.453905 141.858696,158.83072 139.122544,162.151378 L138.487211,162.916557 L134.652427,159.708063 C137.518991,156.281953 140.147837,152.772684 142.300822,149.536846 Z M89.7916601,146.268848 C91.6650743,149.332446 93.8756049,152.585708 96.4123137,156.004818 L97.0034931,156.796777 L93.0054227,159.799348 C90.3331418,156.241075 87.9885997,152.840043 85.9828502,149.617752 L85.526004,148.87733 L89.7916601,146.268848 Z M22.1650386,137.358562 C24.5528653,140.214345 27.0492695,142.97108 29.664761,145.642652 L30.7930076,146.782438 L27.258948,150.319445 C24.4738657,147.536684 21.8165742,144.664047 19.2763463,141.687101 L18.3292273,140.565828 L22.1650386,137.358562 Z M115.012757,134.972823 C115.967293,136.003212 116.957758,137.095068 117.997458,138.262213 L118.371,138.683 L118.445111,138.554691 L118.892991,137.783719 L123.209368,140.307385 C122.631769,141.295286 122.047019,142.321 121.455154,143.384498 L121.009921,144.189205 L119.282315,147.329733 L116.931972,144.623549 C115.076862,142.487576 113.390873,140.593643 111.81448,138.879634 L111.34479,138.370767 L115.012757,134.972823 Z M153.023582,132.137467 C153.263424,136.163201 152.633145,140.313326 151.177761,143.9454 C150.965942,144.472556 150.704242,145.0495 150.395442,145.672107 L150.204531,146.051118 L145.752518,143.775249 C146.080855,143.132963 146.344677,142.563027 146.537396,142.083411 C147.645749,139.317387 148.169771,136.118705 148.058646,132.986732 L148.032432,132.434825 L153.023582,132.137467 Z M82.4730375,128.837222 C82.8410577,131.811056 84.0721837,135.485947 86.1662579,139.737382 L86.4325117,140.271805 L81.9671907,142.521452 C79.5722875,137.767811 78.0946934,133.538232 77.571337,129.90265 L77.5108901,129.451301 L82.4730375,128.837222 Z M10.9696587,121.409383 C12.759054,124.637195 14.8551375,127.865205 17.2891007,131.168164 L17.9046487,131.995508 L13.9066843,134.998221 C11.2938819,131.519402 9.02755241,128.109428 7.07758711,124.688999 L6.59666928,123.833628 L10.9696587,121.409383 Z M131.219064,121.154498 L134.608225,124.830582 C132.342458,126.919503 129.865102,129.950113 127.198998,133.915271 L126.834271,134.461766 L122.666032,131.700284 C125.675963,127.157031 128.518274,123.644489 131.219064,121.154498 Z M99.9299387,121.108742 C102.849277,123.188447 106.03321,125.913957 109.490785,129.287218 L110.069582,129.855426 L106.555925,133.412702 C103.236159,130.133642 100.20805,127.497724 97.4806461,125.506891 L97.0288647,125.181059 L99.9299387,121.108742 Z M140.849344,116.5 C145.484824,116.5 149.11348,119.407917 151.186979,124.112082 L151.322902,124.428342 L146.711293,126.360456 C145.377689,123.177382 143.342689,121.5 140.849344,121.5 C140.517259,121.5 140.168973,121.541253 139.802164,121.626407 L139.523548,121.698546 L138.152544,116.890183 C139.058794,116.631785 139.959239,116.5 140.849344,116.5 Z M93.0062575,117.180105 L93.3877719,117.335888 L91.454932,121.947192 C88.9941607,120.915754 87.0932712,120.75676 85.6783193,121.321751 C84.5483376,121.772954 83.7460815,122.433896 83.2111045,123.328375 L83.0923654,123.53895 L78.6765138,121.193687 C79.7762823,119.122953 81.5311589,117.593848 83.8241663,116.678249 C86.5023316,115.608856 89.5851291,115.820513 93.0062575,117.180105 Z M4.17158332,103.432175 C4.95474054,107.210555 6.10039187,110.880906 7.60986373,114.496117 L7.96466234,115.329441 L3.37799887,117.320049 C1.68798841,113.426007 0.387390271,109.466012 -0.521550457,105.389738 L-0.724352489,104.446972 L4.17158332,103.432175 Z M2.52203155,83.9779453 C2.58358682,87.6903536 2.7742584,91.6203837 3.09565758,95.7943768 L3.1360311,96.2934121 L3.1360311,96.2934121 L3.17956816,96.7832386 L-1.79898921,97.2458037 C-1.8316926,96.8938193 -1.86151405,96.5425366 -1.8895746,96.1783821 C-2.18559402,92.3339946 -2.37357042,88.6852182 -2.45433092,85.2120754 L-2.47728127,84.0608386 L2.52203155,83.9779453 Z M-1.30602154,63.6959317 L3.63988776,64.4294037 C3.10231574,68.0543307 2.75541703,71.9134396 2.59805353,76.0509401 L2.56266065,77.0911407 L-2.4350817,76.9409026 C-2.29311256,72.2182306 -1.91795362,67.8222794 -1.30602154,63.6959317 Z M4.25229063,43.8485594 L8.83195952,45.8552066 C7.32017395,49.305478 6.0935243,52.9259812 5.13553346,56.7943582 L4.90162327,57.7666614 L0.0326769504,56.6294008 C1.09112745,52.0978637 2.49058967,47.8692 4.25229063,43.8485594 Z M15.1000014,26.3083445 L18.9897843,29.4499347 C16.4162892,32.6363265 14.2123841,35.7906974 12.321444,39.0189296 L11.8551963,39.8275876 L7.50649515,37.3600385 C9.63848579,33.6027111 12.1466881,29.965011 15.1000014,26.3083445 Z M29.0897799,11.5453138 L32.5166334,15.1862855 C29.2725153,18.2396236 26.4830437,21.0191261 23.9978646,23.6936184 L23.469929,24.2651781 L19.7867935,20.8836825 C22.493215,17.9358398 25.5309961,14.8948127 29.0897799,11.5453138 Z M44.0342659,-1.87934363 L47.3315784,1.87934363 C43.0962537,5.59478689 40.4573162,7.92904127 37.9034628,10.2328885 L37.6300924,10.4796744 L34.2783084,6.76947985 L34.830292,6.27153102 C37.3208298,4.02801712 39.9342947,1.71736065 44.0342659,-1.87934363 Z"></path>
        </g>
    </g>
</svg>
