<?xml version="1.0" encoding="UTF-8"?>
<svg id="title-svg" class="vivius" viewBox="0 0 422 130" version="1.1" xmlns="http://www.w3.org/2000/svg" xmlns:xlink="http://www.w3.org/1999/xlink">
    <!-- Generator: Sketch 63.1 (92452) - https://sketch.com -->
    <title>Nähzwockel</title>
    <desc>Created with Sketch.</desc>
    <defs>
        <filter x="-2.3%" y="-8.3%" width="104.7%" height="115.6%" filterUnits="objectBoundingBox" id="titleTextFilter">
            <feOffset dx="3" dy="3" in="SourceAlpha" result="shadowOffsetOuter1"></feOffset>
            <feGaussianBlur stdDeviation="0.5" in="shadowOffsetOuter1" result="shadowBlurOuter1"></feGaussianBlur>
            <feColorMatrix values="0 0 0 0 0   0 0 0 0 0   0 0 0 0 0  0 0 0 0.5 0" type="matrix" in="shadowBlurOuter1" result="shadowMatrixOuter1"></feColorMatrix>
            <feMerge>
                <feMergeNode in="shadowMatrixOuter1"></feMergeNode>
                <feMergeNode in="SourceGraphic"></feMergeNode>
            </feMerge>
        </filter>
    </defs>
    <g id="Artboard" stroke="none" stroke-width="1" fill="none" fill-rule="evenodd">
        <g id="titleSvgText" filter="url(#titleTextFilter)" transform="translate(24.614512, 14.030273)" fill="#FFFFFF" fill-rule="nonzero" stroke="#FFFFFF">
            <path d="M38.197988,92.3212891 C40.541738,92.0400391 43.1608786,90.5986328 46.0554099,87.9970703 C48.9499411,85.3955078 51.7975974,82.2138672 54.5983786,78.4521484 C57.3991599,74.6904297 59.8190818,70.9345703 61.8581443,67.1845703 C63.8972068,63.4345703 65.244863,60.2822266 65.901113,57.7275391 C65.9714255,57.3056641 65.901113,56.9833984 65.6901755,56.7607422 C65.479238,56.5380859 65.2390036,56.4501953 64.9694724,56.4970703 C64.6999411,56.5439453 64.5065818,56.7666016 64.3893943,57.1650391 C63.7331443,60.0947266 61.9694724,63.9208984 59.0983786,68.6435547 C56.2272849,73.3662109 53.1921286,77.6435547 49.9929099,81.4755859 C46.7936911,85.3076172 44.3620505,87.3408203 42.697988,87.5751953 C42.0651755,87.4814453 41.9421286,86.0400391 42.3288474,83.2509766 C42.7155661,80.4619141 43.3425193,76.8291016 44.2097068,72.3525391 C45.1472068,67.5009766 46.0436911,62.2919922 46.8991599,56.7255859 C47.7546286,51.1591797 48.2585349,45.8623047 48.4108786,40.8349609 C48.5632224,35.8076172 48.0300193,31.6884766 46.8112693,28.4775391 C45.5925193,25.2666016 43.3659568,23.6025391 40.1315818,23.4853516 C36.8503318,23.5791016 33.6804099,24.8798828 30.6218161,27.3876953 C27.5632224,29.8955078 24.7624411,33.0654297 22.2194724,36.8974609 C19.6765036,40.7294922 17.5495505,44.6669922 15.838613,48.7099609 C14.1276755,52.7529297 13.0026755,56.3330078 12.463613,59.4501953 C12.7683005,52.7470703 13.3366599,45.7978516 14.1686911,38.6025391 C15.0007224,31.4072266 15.885488,24.4580078 16.822988,17.7548828 C16.916738,17.0283203 17.010488,16.3134766 17.104238,15.6103516 C17.291738,13.9462891 16.8171286,13.0556641 15.6804099,12.9384766 C14.5436911,12.8212891 13.1315818,13.2255859 11.4440818,14.1513672 C9.75658176,15.0771484 8.18626926,16.2900391 6.73314426,17.7900391 C5.28001926,19.2900391 4.34251926,20.8251953 3.92064426,22.3955078 C2.25658176,29.2158203 1.08470676,37.8408203 0.405019264,48.2705078 C-0.274668236,58.7001953 -0.0988869863,66.7744141 0.932363014,72.4931641 C1.49486301,74.8837891 2.66673801,76.9814453 4.44798801,78.7861328 C6.22923801,80.5908203 7.96947239,81.8095703 9.66869114,82.4423828 C11.3679099,83.0751953 12.3815818,82.8408203 12.7097068,81.7392578 C12.9675193,79.7705078 13.026113,77.2626953 12.885488,74.2158203 C12.8205842,72.2038011 12.8255768,70.5113085 12.9004658,69.1383425 L12.9206443,68.8017578 C13.2956443,64.6767578 14.3093161,60.2353516 15.9616599,55.4775391 C17.6140036,50.7197266 19.6589255,46.1669922 22.0964255,41.8193359 C24.5339255,37.4716797 27.1179099,33.8681641 29.8483786,31.0087891 C32.5788474,28.1494141 35.2097068,26.5556641 37.7409568,26.2275391 C38.5847068,26.2041016 38.994863,27.2646484 38.9714255,29.4091797 C38.947988,31.5537109 38.6433005,34.4423828 38.057363,38.0751953 C37.4714255,41.7080078 36.7565818,45.7392578 35.9128318,50.1689453 C34.9518943,55.3017578 34.0495505,60.4755859 33.2058005,65.6904297 C32.3620505,70.9052734 31.8347068,75.6337891 31.6237693,79.8759766 C31.4831443,84.6806641 32.0397849,88.0146484 33.2936911,89.8779297 C34.5475974,91.7412109 36.182363,92.5556641 38.197988,92.3212891 Z" id="N"></path>
            <path d="M68.9753318,48.5166016 C70.8503318,46.5712891 73.3112693,45.7275391 76.3581443,45.9853516 C77.0847068,46.1025391 77.6647849,46.3251953 78.0983786,46.6533203 C78.5319724,46.9814453 78.8249411,47.3271484 78.9772849,47.6904297 C79.1296286,48.0537109 79.1530661,48.3232422 79.0475974,48.4990234 C78.9421286,48.6748047 78.713613,48.6689453 78.3620505,48.4814453 C76.697988,48.5751953 75.3503318,49.4658203 74.3190818,51.1533203 C73.2878318,52.8408203 72.6022849,54.7568359 72.2624411,56.9013672 C71.9225974,59.0458984 71.9225974,60.8681641 72.2624411,62.3681641 C72.6022849,63.8681641 73.2878318,64.4892578 74.3190818,64.2314453 C75.6550193,63.6689453 76.6100974,62.4794922 77.1843161,60.6630859 C77.7585349,58.8466797 78.1862693,56.9423828 78.4675193,54.9501953 C78.7018943,53.4501953 78.9714255,52.1845703 79.276113,51.1533203 L79.276113,51.1533203 L79.3625687,50.9508131 C79.7636369,50.0880501 80.5082559,49.4172712 81.5964255,48.9384766 C82.7683005,48.4228516 84.0222068,48.1708984 85.3581443,48.1826172 C86.6940818,48.1943359 87.7839255,48.5400391 88.6276755,49.2197266 C89.166738,49.7587891 89.2897849,50.4501953 88.9968161,51.2939453 C88.7038474,52.1376953 88.3112693,52.9580078 87.8190818,53.7548828 C87.7956443,53.8017578 87.7722068,53.8369141 87.7487693,53.8603516 C86.7409568,55.7587891 86.1491599,57.9267578 85.9733786,60.3642578 C85.7975974,62.8017578 86.0378318,64.9287109 86.6940818,66.7451172 C87.3503318,68.5615234 88.4284568,69.4697266 89.9284568,69.4697266 C91.3815818,69.3056641 92.7058005,68.4384766 93.901113,66.8681641 C95.0964255,65.2978516 96.0866599,63.5576172 96.8718161,61.6474609 C97.6569724,59.7373047 98.1784568,58.1962891 98.4362693,57.0244141 C98.5300193,56.6962891 98.7058005,56.5029297 98.963613,56.4443359 C99.2214255,56.3857422 99.4616599,56.4384766 99.6843161,56.6025391 C99.9069724,56.7666016 99.994863,57.0244141 99.947988,57.3759766 C99.713613,58.5244141 99.1862693,60.1240234 98.3659568,62.1748047 C97.5456443,64.2255859 96.4206443,66.1533203 94.9909568,67.9580078 C93.5612693,69.7626953 91.8151755,70.8759766 89.7526755,71.2978516 C86.869863,71.6728516 84.572988,71.3505859 82.8620505,70.3310547 C81.151113,69.3115234 79.9382224,67.9697266 79.2233786,66.3056641 C78.5085349,64.6416016 78.1628318,63.0361328 78.1862693,61.4892578 C77.8815818,62.1220703 77.494863,62.7958984 77.026113,63.5107422 C76.557363,64.2255859 76.0065818,64.8466797 75.3737693,65.3740234 C74.7409568,65.9013672 74.0495505,66.1650391 73.2995505,66.1650391 C70.135488,66.0712891 67.932363,64.9638672 66.6901755,62.8427734 C65.447988,60.7216797 65.0495505,58.2900391 65.494863,55.5478516 C65.9401755,52.8056641 67.1003318,50.4619141 68.9753318,48.5166016 Z M85.1647849,35.9306641 C85.7155661,35.8369141 86.2311911,35.9248047 86.7116599,36.1943359 C87.1921286,36.4638672 87.4089255,36.8681641 87.3620505,37.4072266 L87.3620505,37.4072266 L86.4831443,42.4345703 C86.3659568,42.9501953 86.0319724,43.2548828 85.4811911,43.3486328 C84.9304099,43.4423828 84.4147849,43.3544922 83.9343161,43.0849609 C83.4538474,42.8154297 83.2370505,42.4111328 83.2839255,41.8720703 L83.2839255,41.8720703 L84.1628318,36.8798828 L84.2001671,36.7383862 C84.3425354,36.285132 84.6640747,36.0158913 85.1647849,35.9306641 Z M78.0280661,34.8232422 C78.5788474,34.7412109 79.0944724,34.8291016 79.5749411,35.0869141 C80.0554099,35.3447266 80.2722068,35.7548828 80.2253318,36.3173828 L80.2253318,36.3173828 L79.3815818,41.3095703 C79.2409568,41.8486328 78.8952536,42.1591797 78.3444724,42.2412109 C77.7936911,42.3232422 77.2780661,42.2294922 76.7975974,41.9599609 C76.3171286,41.6904297 76.1003318,41.2861328 76.1472068,40.7470703 L76.1472068,40.7470703 L77.026113,35.7548828 L77.0634484,35.6135314 C77.2058167,35.1612458 77.5273559,34.8978161 78.0280661,34.8232422 Z" id="ae"></path>
            <path d="M125.346426,0.0009765625 C128.440176,0.188476562 130.385488,1.81152344 131.182363,4.87011719 C131.979238,7.92871094 131.932363,11.7724609 131.041738,16.4013672 C130.151113,21.0302734 128.715566,25.8056641 126.735097,30.7275391 C124.754629,35.6494141 122.528066,40.0849609 120.05541,44.0341797 C117.582754,47.9833984 115.162832,50.7900391 112.795644,52.4541016 C112.678457,56.6962891 112.643301,61.0205078 112.690176,65.4267578 L112.690176,65.4267578 L112.77143,64.7883203 C113.310815,60.7760547 114.32084,57.3560547 115.801504,54.5283203 C117.360097,51.5517578 119.217519,49.9111328 121.373769,49.6064453 C124.139394,49.3955078 126.061269,49.9052734 127.139394,51.1357422 C128.217519,52.3662109 128.803457,53.9423828 128.897207,55.8642578 C128.990957,57.7861328 128.932363,59.6845703 128.721426,61.5595703 C128.557363,63.1533203 128.516347,64.4775391 128.598379,65.5322266 C128.68041,66.5869141 129.084707,67.1494141 129.811269,67.2197266 C131.030019,67.1494141 132.377676,66.4287109 133.854238,65.0576172 C135.330801,63.6865234 136.655019,62.1982422 137.826894,60.5927734 C138.998769,58.9873047 139.713613,57.7978516 139.971426,57.0244141 C140.088613,56.6962891 140.264394,56.5087891 140.498769,56.4619141 C140.733144,56.4150391 140.932363,56.4736328 141.096426,56.6376953 C141.260488,56.8017578 141.295644,57.0478516 141.201894,57.3759766 C140.780019,58.7353516 139.83666,60.3759766 138.371816,62.2978516 C136.906972,64.2197266 135.219472,65.9482422 133.309316,67.4833984 C131.39916,69.0185547 129.565176,69.8681641 127.807363,70.0322266 C125.135488,70.0791016 123.313222,69.2177734 122.340566,67.4482422 C121.36791,65.6787109 120.881582,63.5986328 120.881582,61.2080078 C120.881582,58.8173828 121.010488,56.6845703 121.268301,54.8095703 C121.362051,53.9423828 121.426504,53.2451172 121.46166,52.7177734 C121.496816,52.1904297 121.444082,51.9033203 121.303457,51.8564453 C120.037832,51.6923828 118.830801,52.7001953 117.682363,54.8798828 C116.533926,57.0595703 115.549551,60.0126953 114.729238,63.7392578 C113.908926,67.4658203 113.322988,71.5439453 112.971426,75.9736328 L112.971426,75.9736328 L113.041738,77.4150391 C113.041738,78.1884766 112.490957,78.9208984 111.389394,79.6123047 C110.287832,80.3037109 109.028066,80.8427734 107.610097,81.2294922 C106.192129,81.6162109 104.914785,81.7685547 103.778066,81.6865234 C102.641347,81.6044922 101.979238,81.1767578 101.791738,80.4033203 C101.041738,78.5517578 100.438222,75.3291016 99.9811911,70.7353516 C99.5241599,66.1416016 99.3483786,60.7919922 99.4538474,54.6865234 C99.5593161,48.5810547 100.069082,42.3291016 100.983144,35.9306641 C101.897207,29.5322266 103.338613,23.5966797 105.307363,18.1240234 C107.276113,12.6513672 109.901113,8.25097656 113.182363,4.92285156 C116.463613,1.59472656 120.518301,-0.0458984375 125.346426,0.0009765625 Z M125.979238,2.21582031 L125.758413,2.23435974 C123.487905,2.48127747 121.569326,4.44384766 120.002676,8.12207031 C118.385488,11.9189453 117.072988,16.5478516 116.065176,22.0087891 C115.057363,27.4697266 114.307363,32.7607422 113.815176,37.8818359 C113.322988,43.0029297 113.018301,46.9697266 112.901113,49.7822266 C115.174551,48.1181641 117.389394,45.4697266 119.545644,41.8369141 C121.701894,38.2041016 123.61791,34.1552734 125.293691,29.6904297 C126.969472,25.2255859 128.217519,20.9130859 129.037832,16.7529297 C129.858144,12.5927734 130.063222,9.15917969 129.653066,6.45214844 C129.24291,3.74511719 128.018301,2.33300781 125.979238,2.21582031 L125.979238,2.21582031 Z" id="h"></path>
            <path d="M152.678457,45.2119141 C155.655019,45.5166016 157.506582,46.9990234 158.233144,49.6591797 C158.959707,52.3193359 158.362051,55.2548828 156.440176,58.4658203 C158.690176,57.5048828 160.858144,57.2470703 162.944082,57.6923828 C165.030019,58.1376953 166.588613,58.7236328 167.619863,59.4501953 C168.838613,58.7001953 170.350332,58.0029297 172.155019,57.3583984 C173.959707,56.7138672 176.092519,56.3916016 178.553457,56.3916016 C178.740957,56.4150391 178.858144,56.5087891 178.905019,56.6728516 C178.951894,56.8369141 178.946035,57.0009766 178.887441,57.1650391 C178.828847,57.3291016 178.717519,57.4111328 178.553457,57.4111328 C176.772207,57.4814453 174.973379,57.8212891 173.156972,58.4306641 C171.340566,59.0400391 169.881582,59.6962891 168.780019,60.3994141 C171.780019,63.3994141 173.514394,67.5068359 173.983144,72.7216797 C174.451894,77.9365234 173.824941,83.2744141 172.102285,88.7353516 C170.379629,94.1962891 167.731191,98.7958984 164.156972,102.53418 C160.582754,106.272461 156.252676,108.15332 151.166738,108.176758 C147.346426,107.96582 144.39916,106.46582 142.324941,103.676758 C140.250722,100.887695 139.330801,97.2900391 139.565176,92.8837891 C139.799551,88.4775391 141.475332,83.7724609 144.592519,78.7685547 C147.709707,73.7646484 152.549551,68.9658203 159.112051,64.3720703 C157.822988,63.0361328 156.328847,62.3916016 154.629629,62.4384766 C152.93041,62.4853516 151.447988,63.1064453 150.182363,64.3017578 C149.666738,64.6064453 149.221426,64.6416016 148.846426,64.4072266 C148.471426,64.1728516 148.190176,63.8212891 148.002676,63.3525391 C147.815176,62.8837891 147.744863,62.4384766 147.791738,62.0166016 C147.815176,61.9931641 147.944082,61.7001953 148.178457,61.1376953 C148.412832,60.5751953 148.688222,59.9248047 149.004629,59.1865234 C149.321035,58.4482422 149.608144,57.7802734 149.865957,57.1826172 C150.123769,56.5849609 150.287832,56.2275391 150.358144,56.1103516 C151.623769,53.3916016 152.203847,51.3115234 152.098379,49.8701172 C151.99291,48.4287109 151.512441,47.7373047 150.656972,47.7958984 C149.801504,47.8544922 148.846426,48.7978516 147.791738,50.6259766 L147.791738,50.6259766 L147.54331,51.1453552 C146.33344,53.7463684 145.607656,56.4091797 145.365957,59.1337891 C145.319082,59.3212891 145.05541,59.5439453 144.574941,59.8017578 C144.094472,60.0595703 143.549551,60.2587891 142.940176,60.3994141 C142.330801,60.5400391 141.803457,60.5166016 141.358144,60.3291016 C140.912832,60.1416016 140.690176,59.6845703 140.690176,58.9580078 L140.690176,58.9580078 L141.182363,52.8056641 C141.135488,52.1494141 141.293691,51.7216797 141.656972,51.5224609 C142.020254,51.3232422 142.459707,51.2705078 142.975332,51.3642578 C143.490957,51.4580078 143.953847,51.6337891 144.364004,51.8916016 C144.77416,52.1494141 145.002676,52.3955078 145.049551,52.6298828 L145.049551,52.6298828 L145.084707,53.2978516 C145.389394,52.3134766 145.887441,51.1826172 146.578847,49.9052734 C147.270254,48.6279297 148.125722,47.5263672 149.145254,46.6005859 C150.164785,45.6748047 151.342519,45.2119141 152.678457,45.2119141 Z M160.166738,65.3564453 C153.932363,69.6923828 149.356191,74.0869141 146.438222,78.5400391 C143.520254,82.9931641 141.838613,87.1298828 141.393301,90.9501953 C140.947988,94.7705078 141.334707,97.8935547 142.553457,100.319336 C143.772207,102.745117 145.418691,104.104492 147.49291,104.397461 C149.567129,104.69043 151.647207,103.524414 153.733144,100.899414 L153.733144,100.899414 L154.025907,100.532416 C156.06635,97.9225005 157.919934,94.4530362 159.58666,90.1240234 C161.332754,85.5888672 162.381582,81.0302734 162.733144,76.4482422 C163.084707,71.8662109 162.229238,68.1689453 160.166738,65.3564453 Z" id="z"></path>
            <path d="M217.100332,89.4736328 C218.928457,89.2392578 220.516347,87.8037109 221.864004,85.1669922 C223.21166,82.5302734 224.319082,79.3310547 225.186269,75.5693359 C226.053457,71.8076172 226.703847,68.1396484 227.137441,64.5654297 C227.571035,60.9912109 227.799551,58.1376953 227.822988,56.0048828 C229.416738,57.4345703 231.625722,58.2314453 234.449941,58.3955078 C237.27416,58.5595703 239.565176,58.3837891 241.322988,57.8681641 C241.651113,57.7509766 241.838613,57.5576172 241.885488,57.2880859 C241.932363,57.0185547 241.86791,56.7841797 241.692129,56.5849609 C241.516347,56.3857422 241.276113,56.3330078 240.971426,56.4267578 C238.979238,57.1298828 236.623769,57.3173828 233.905019,56.9892578 C231.186269,56.6611328 229.158926,55.6064453 227.822988,53.8251953 C227.705801,50.4970703 227.319082,48.3642578 226.662832,47.4267578 C226.006582,46.4892578 225.391347,46.3544922 224.817129,47.0224609 C224.24291,47.6904297 224.002676,48.7626953 224.096426,50.2392578 C224.190176,51.7158203 224.916738,53.2041016 226.276113,54.7041016 C226.276113,58.4541016 225.918691,62.5966797 225.203847,67.1318359 C224.489004,71.6669922 223.557363,75.7802734 222.408926,79.4716797 C221.260488,83.1630859 220.018301,85.6181641 218.682363,86.8369141 C217.674551,85.9697266 216.778066,83.4033203 215.99291,79.1376953 C215.207754,74.8720703 214.627676,70.4716797 214.252676,65.9365234 C213.877676,61.4013672 213.819082,58.3017578 214.076894,56.6376953 C214.240957,54.9033203 213.572988,53.3447266 212.072988,51.9619141 C210.572988,50.5791016 208.938222,49.7998047 207.168691,49.6240234 C205.39916,49.4482422 204.174551,50.2744141 203.494863,52.1025391 C202.862051,54.1181641 201.783926,56.5556641 200.260488,59.4150391 C198.737051,62.2744141 197.090566,64.7880859 195.321035,66.9560547 C193.625234,69.0336914 192.12854,70.0942688 190.830953,70.1377869 L190.662832,70.1376953 C190.076894,69.1767578 189.455801,67.1435547 188.799551,64.0380859 C188.143301,60.9326172 187.920644,57.5751953 188.131582,53.9658203 C188.342519,50.3564453 189.479238,47.3330078 191.541738,44.8955078 C192.408926,43.8642578 192.678457,42.6220703 192.350332,41.1689453 C192.022207,39.7158203 191.289785,38.4326172 190.153066,37.3193359 C189.016347,36.2060547 187.692129,35.6494141 186.18041,35.6494141 C184.668691,35.6494141 183.162832,36.5751953 181.662832,38.4267578 C180.326894,40.2783203 179.512441,44.9658203 179.219472,52.4892578 C178.926504,60.0126953 179.541738,65.2685547 181.065176,68.2568359 C182.588613,71.2451172 184.826894,73.0673828 187.780019,73.7236328 C190.123769,74.0048828 192.420644,73.0615234 194.670644,70.8935547 C196.920644,68.7255859 198.871816,66.2236328 200.52416,63.3876953 C202.176504,60.5517578 203.260488,58.2666016 203.776113,56.5322266 C203.799551,56.7900391 203.811269,57.1064453 203.811269,57.4814453 C203.858144,59.3330078 204.010488,62.0166016 204.268301,65.5322266 C204.526113,69.0478516 205.082754,72.6748047 205.938222,76.4130859 C206.793691,80.1513672 208.106191,83.2919922 209.875722,85.8349609 C211.645254,88.3779297 214.053457,89.5908203 217.100332,89.4736328 Z" id="w"></path>
            <path d="M244.889394,39.6748047 C247.772207,38.5380859 250.619863,38.3857422 253.432363,39.2177734 C256.244863,40.0498047 258.477285,42.1767578 260.129629,45.5986328 C261.781972,49.0205078 262.315176,54.0478516 261.729238,60.6806641 C262.104238,60.4697266 262.549551,60.2353516 263.065176,59.9775391 C264.049551,59.5087891 265.045644,58.9814453 266.053457,58.3955078 C267.061269,57.8095703 267.811269,57.2001953 268.303457,56.5673828 C268.490957,56.4033203 268.737051,56.3564453 269.041738,56.4267578 C269.346426,56.4970703 269.598379,56.6494141 269.797597,56.8837891 C269.996816,57.1181641 270.026113,57.3876953 269.885488,57.6923828 C269.041738,58.7705078 267.793691,59.7607422 266.141347,60.6630859 C264.489004,61.5654297 263.006582,62.2978516 261.694082,62.8603516 C261.623769,62.9072266 261.553457,62.9423828 261.483144,62.9658203 C261.295644,64.3955078 260.744863,66.2822266 259.830801,68.6259766 C258.916738,70.9697266 257.686269,73.0908203 256.139394,74.9892578 C254.592519,76.8876953 252.764394,77.8955078 250.655019,78.0126953 C247.115957,77.9423828 244.602285,77.0341797 243.114004,75.2880859 C241.625722,73.5419922 240.758535,71.5380859 240.512441,69.2763672 C240.266347,67.0146484 240.248769,65.0869141 240.459707,63.4931641 L240.459707,63.4931641 L240.132129,63.1605273 C237.016139,59.9467383 235.367519,56.7822266 235.186269,53.6669922 C234.998769,50.4443359 235.848379,47.5908203 237.735097,45.1064453 C239.621816,42.6220703 242.006582,40.8115234 244.889394,39.6748047 Z M257.615957,63.6689453 C255.600332,64.3251953 253.549551,64.6533203 251.463613,64.6533203 C251.205801,66.4111328 251.094472,68.2626953 251.129629,70.2080078 C251.164785,72.1533203 251.498769,73.9580078 252.131582,75.6220703 L252.131582,75.6220703 L252.308154,75.5698225 C253.243059,75.2551599 254.068967,74.3643727 254.785879,72.8974609 C255.547597,71.3388672 256.168691,69.6572266 256.64916,67.8525391 C257.129629,66.0478516 257.451894,64.6533203 257.615957,63.6689453 Z M249.037832,40.6942394 C246.131582,40.6826172 243.459707,41.7373047 241.022207,43.8583984 C238.584707,45.9794922 237.14916,48.6396484 236.715566,51.8388672 C236.281972,55.0380859 237.612051,58.2431641 240.705801,61.4541016 C241.338613,57.2119141 242.651113,53.2275391 244.643301,49.5009766 C245.346426,48.3525391 246.61791,47.6962891 248.457754,47.5322266 C250.297597,47.3681641 251.938222,47.5966797 253.379629,48.2177734 C254.821035,48.8388672 255.307363,49.7470703 254.838613,50.9423828 L254.838613,50.9423828 L254.566331,51.7066725 C253.403544,55.0442443 252.463055,58.7152623 251.744863,62.7197266 C253.854238,62.6728516 255.905019,62.2626953 257.897207,61.4892578 C258.623769,54.0361328 258.05541,48.7099609 256.192129,45.5107422 C254.328847,42.3115234 251.944082,40.7060547 249.037832,40.6942394 Z" id="o"></path>
            <path d="M276.580801,74.7783203 C279.815176,74.8017578 282.709707,73.6416016 285.264394,71.2978516 C287.819082,68.9541016 289.893301,66.3876953 291.487051,63.5986328 C293.080801,60.8095703 294.065176,58.7822266 294.440176,57.5166016 C294.557363,57.0244141 294.522207,56.7021484 294.334707,56.5498047 C294.147207,56.3974609 293.918691,56.3916016 293.64916,56.5322266 C293.379629,56.6728516 293.174551,56.9423828 293.033926,57.3408203 C292.190176,59.9892578 290.83666,62.5498047 288.973379,65.0224609 C287.110097,67.4951172 285.123769,69.3994141 283.014394,70.7353516 C280.905019,72.0712891 279.041738,72.3408203 277.424551,71.5439453 C276.627676,71.0751953 276.106191,70.1435547 275.860097,68.7490234 C275.614004,67.3544922 275.584707,65.7314453 275.772207,63.8798828 C276.147207,60.5283203 276.891347,57.4111328 278.004629,54.5283203 C279.11791,51.6455078 280.260488,50.1923828 281.432363,50.1689453 C282.158926,50.3798828 282.715566,51.2705078 283.102285,52.8408203 C283.459256,54.2903395 283.461752,55.79977 283.109774,57.3691117 L283.014394,57.7626953 C281.865957,58.2080078 281.063222,58.7412109 280.606191,59.3623047 C280.14916,59.9833984 279.967519,60.5224609 280.061269,60.9794922 C280.155019,61.4365234 280.459707,61.6650391 280.975332,61.6650391 C281.819082,61.5712891 282.528066,61.0439453 283.102285,60.0830078 C283.676504,59.1220703 284.110097,58.0498047 284.403066,56.8662109 C284.696035,55.6826172 284.877676,54.7041016 284.947988,53.9306641 C285.088613,52.1962891 284.865957,50.6259766 284.280019,49.2197266 C283.694082,47.8134766 282.569082,46.9345703 280.905019,46.5830078 C278.490957,46.2783203 276.293691,46.9755859 274.313222,48.6748047 C272.332754,50.3740234 270.739004,52.6064453 269.531972,55.3720703 C268.324941,58.1376953 267.68041,60.9677734 267.598379,63.8623047 C267.516347,66.7568359 268.178457,69.2353516 269.584707,71.2978516 C270.990957,73.3603516 273.322988,74.5205078 276.580801,74.7783203 Z" id="c"></path>
            <path d="M303.526113,79.6298828 C305.002676,78.4814453 305.799551,77.3447266 305.916738,76.2197266 C305.893301,75.9384766 305.869863,75.6689453 305.846426,75.4111328 C305.658926,73.6064453 305.500722,71.9892578 305.371816,70.5595703 C305.24291,69.1298828 305.131582,67.3720703 305.037832,65.2861328 C307.873769,70.2314453 311.061269,73.0439453 314.600332,73.7236328 C318.139394,74.4033203 321.520254,73.3134766 324.74291,70.4541016 C327.965566,67.5947266 330.514394,63.3173828 332.389394,57.6220703 C332.506582,57.2470703 332.453847,56.9482422 332.231191,56.7255859 C332.008535,56.5029297 331.733144,56.4150391 331.405019,56.4619141 C331.076894,56.5087891 330.819082,56.7197266 330.631582,57.0947266 C328.920644,62.2275391 326.846426,65.7724609 324.408926,67.7294922 C321.971426,69.6865234 319.516347,70.4599609 317.043691,70.0498047 C314.571035,69.6396484 312.408926,68.4677734 310.557363,66.5341797 C308.705801,64.6005859 307.522207,62.2978516 307.006582,59.6259766 C311.108144,58.6416016 314.494863,56.4150391 317.166738,52.9462891 C317.307363,52.6650391 317.295644,52.3193359 317.131582,51.9091797 C316.967519,51.4990234 316.727285,51.1064453 316.410879,50.7314453 C316.094472,50.3564453 315.772207,50.0869141 315.444082,49.9228516 C315.115957,49.7587891 314.869863,49.7939453 314.705801,50.0283203 C313.533926,52.1142578 312.145254,53.5966797 310.539785,54.4755859 C308.934316,55.3544922 307.006582,56.0166016 304.756582,56.4619141 C304.733144,54.5166016 304.768301,51.4755859 304.862051,47.3388672 C304.955801,43.2021484 305.172597,38.9541016 305.512441,34.5947266 C305.852285,30.2353516 306.385488,26.7666016 307.112051,24.1884766 C307.463613,22.6416016 307.217519,21.1357422 306.373769,19.6708984 C305.530019,18.2060547 304.533926,17.1220703 303.385488,16.4189453 C302.297495,15.7528269 301.503996,15.7388033 301.004991,16.3768747 L300.924551,16.4892578 C298.463613,21.3876953 296.699941,27.6337891 295.633535,35.2275391 C294.567129,42.8212891 294.063222,50.4560547 294.121816,58.1318359 C294.18041,65.8076172 294.666738,72.2236328 295.580801,77.3798828 C296.143301,79.8876953 297.239004,81.1767578 298.86791,81.2470703 C300.496816,81.3173828 302.049551,80.7783203 303.526113,79.6298828 Z" id="k"></path>
            <path d="M337.766347,45.5810547 C340.168691,43.9052734 342.975332,43.4775391 346.186269,44.2978516 C348.155019,44.9775391 349.426504,46.1787109 350.000722,47.9013672 C350.574941,49.6240234 350.229238,51.2236328 348.963613,52.7001953 C347.697988,54.1767578 345.307363,54.9033203 341.791738,54.8798828 L341.791738,54.8798828 L341.652753,55.261779 C340.484993,58.5410357 340.273509,61.0270182 341.018301,62.7197266 C341.791738,64.4775391 343.133535,65.4150391 345.043691,65.5322266 C346.953847,65.6494141 348.975332,64.9814453 351.108144,63.5283203 C353.240957,62.0751953 355.010488,59.8837891 356.416738,56.9541016 C356.651113,56.6494141 356.908926,56.4736328 357.190176,56.4267578 C357.471426,56.3798828 357.688222,56.4384766 357.840566,56.6025391 C357.99291,56.7666016 357.998769,57.0244141 357.858144,57.3759766 C357.131582,58.9697266 355.795644,60.8212891 353.850332,62.9306641 C351.905019,65.0400391 349.473379,66.6337891 346.55541,67.7119141 C343.637441,68.7900391 340.373769,68.5791016 336.764394,67.0791016 C333.975332,65.6962891 332.281972,63.6220703 331.684316,60.8564453 C331.08666,58.0908203 331.350332,55.2724609 332.475332,52.4013672 C333.600332,49.5302734 335.364004,47.2568359 337.766347,45.5810547 Z M347.434316,47.8486328 C347.11791,47.4501953 346.543691,47.5673828 345.71166,48.2001953 C344.879629,48.8330078 343.819082,50.2744141 342.530019,52.5244141 L342.530019,52.5244141 L342.816504,52.5564453 C344.134108,52.6804036 345.181191,52.4470703 345.957754,51.8564453 C346.789785,51.2236328 347.322988,50.4970703 347.557363,49.6767578 C347.791738,48.8564453 347.750722,48.2470703 347.434316,47.8486328 Z" id="e"></path>
            <path d="M367.541738,81.9501953 C369.744863,81.5986328 371.778066,80.3857422 373.641347,78.3115234 C375.504629,76.2373047 377.139394,73.7939453 378.545644,70.9814453 C379.951894,68.1689453 381.094472,65.4912109 381.973379,62.9482422 C382.852285,60.4052734 383.408926,58.5009766 383.643301,57.2353516 C383.713613,56.9541016 383.666738,56.7431641 383.502676,56.6025391 C383.338613,56.4619141 383.145254,56.4150391 382.922597,56.4619141 C382.699941,56.5087891 382.541738,56.6728516 382.447988,56.9541016 C381.651113,60.7978516 380.485097,64.4482422 378.949941,67.9052734 C377.414785,71.3623047 375.850332,74.1689453 374.256582,76.3251953 C372.726582,78.3951953 371.488182,79.4067953 370.541382,79.3599953 L370.424551,79.3486328 C368.854238,78.9033203 367.89916,77.0048828 367.559316,73.6533203 C367.219472,70.3017578 367.289785,66.2001953 367.770254,61.3486328 C368.250722,56.4970703 368.947988,51.5751953 369.862051,46.5830078 C370.776113,41.5908203 371.725332,37.2255859 372.709707,33.4873047 C373.694082,29.7490234 374.502676,27.3291016 375.135488,26.2275391 C375.557363,25.3134766 375.235097,23.9658203 374.168691,22.1845703 C373.102285,20.4033203 371.748769,18.9384766 370.108144,17.7900391 C368.467519,16.6416016 366.990957,16.5244141 365.678457,17.4384766 C364.811269,18.2587891 363.838613,20.4033203 362.760488,23.8720703 C361.682363,27.3408203 360.68041,31.5712891 359.754629,36.5634766 C358.828847,41.5556641 358.143301,46.7412109 357.697988,52.1201172 C357.252676,57.4990234 357.223379,62.5087891 357.610097,67.1494141 C357.996816,71.7900391 358.975332,75.4814453 360.545644,78.2236328 C362.115957,80.9658203 364.447988,82.2080078 367.541738,81.9501953 Z" id="l"></path>
        </g>
    </g>
</svg>
